<svg width="389" height="78" xmlns="http://www.w3.org/2000/svg" xmlns:xlink="http://www.w3.org/1999/xlink" xml:space="preserve" overflow="hidden"><defs><clipPath id="clip0"><rect x="0" y="0" width="389" height="78"/></clipPath></defs><g clip-path="url(#clip0)"><path d="M38.4152 33.7655 35.5905 35.9076 35.5905 45.3468 38.4152 42.9601Z" fill="#DA2128" transform="matrix(1.00436 0 0 1 0 0.582082)"/><path d="M42.6887 36.0554 39.6274 33.7064 39.6274 42.8231C40.2751 43.3767 41.4416 44.3712 42.6887 45.4301L42.6887 36.0554Z" fill="#DA2128" transform="matrix(1.00436 0 0 1 0 0.582082)"/><path d="M43.8981 36.98 43.8981 46.4568C44.8738 47.2873 45.8064 48.0775 46.4783 48.65L46.4783 38.9608 43.8981 36.98Z" fill="#DA2128" transform="matrix(1.00436 0 0 1 0 0.582082)"/><path d="M34.381 36.8241 31.6476 38.8963 31.6476 48.6795 34.381 46.3708Z" fill="#DA2128" transform="matrix(1.00436 0 0 1 0 0.582082)"/><path d="M39.0872 44.4625 38.9151 44.6077 31.6476 50.7276 31.5912 58.4843 46.4783 58.4843 46.4783 50.7276 39.1033 44.476Z" fill="#DA2128" transform="matrix(1.00436 0 0 1 0 0.582082)"/><path d="M54.794 0.72299C52.5713 0.72299 50.0046 1.76582 47.7227 3.59345L47.7227 0.118259 47.7227 0 47.6018 0 30.5672 0 30.4489 0 30.4489 0.118259 30.4489 3.40531C28.0461 1.19602 24.8827 0.72299 22.625 0.72299L0.274145 0.72299 0.150511 0.72299 0.150511 0.843936 0.150511 0.900378C0.110196 21.2919 0.110196 42.0194 0.110196 62.0696L0.110196 62.11 0.137072 62.161C1.66368 64.502 3.25211 66.8914 4.7841 69.1974L5.22757 69.8613 5.67373 70.5278 5.69523 70.5574 5.72479 70.6031 5.77855 70.6058 5.80811 70.6085C6.75687 70.6326 7.80507 70.6434 9.02259 70.6434 9.71064 70.6434 10.4121 70.6434 11.1029 70.638L12.1833 70.63 12.7558 70.6246C13.5971 70.6165 14.4544 70.6085 15.2984 70.6085 20.999 70.6085 25.7186 70.9229 30.2285 72.4576 33.1769 73.5918 34.9938 74.7878 37.625 76.3091L37.6627 76.3359 38.3615 76.7364 38.5416 76.8385 38.5416 76.6316 38.5416 76.5348C38.4959 72.0974 38.4959 67.5929 38.4959 63.228L39.7591 63.228 39.7591 76.6289 39.7591 76.8251 39.9338 76.7364 40.0171 76.6961C40.3611 76.5106 40.6863 76.3332 40.9927 76.1639 41.2292 76.0376 45.9972 73.3069 47.849 72.7667 54.4016 70.7536 59.046 70.5843 64.0155 70.5843 64.8783 70.5843 65.7518 70.5923 66.6871 70.6004L67.5767 70.6058C68.3373 70.6111 69.1248 70.6165 69.9392 70.6165 70.4499 70.6165 70.974 70.6138 71.5169 70.6085L71.5438 70.6085 71.6056 70.6085 71.6432 70.5547 71.9577 70.1435C74.0675 67.3832 76.0564 64.7788 78.0937 62.1798L78.1017 62.1691 78.1071 62.1556 78.1206 62.1288 78.1286 62.0858 78.1286 0.841249 78.1286 0.72299 78.005 0.72299 54.794 0.72299ZM39.3425 7.85345C39.3425 7.85345 43.7933 5.23563 45.3871 4.27881L45.3871 11.4603C43.4842 10.3396 41.455 9.12741 39.3425 7.85345ZM42.6833 14.1642 35.483 14.1642C36.7542 12.014 37.9368 10.0224 39.106 8.08728 40.1407 9.86384 42.6833 14.1642 42.6833 14.1642ZM42.686 1.5508C41.6324 3.34081 39.1033 7.61693 39.1033 7.61693 37.9744 5.77317 36.8161 3.8434 35.4776 1.5508L42.686 1.5508ZM32.7361 4.27881C34.889 5.56622 36.8806 6.73536 38.8265 7.85345 37.9207 8.3883 33.865 10.7938 32.7361 11.4603L32.7361 4.27881ZM76.7525 60.8441C74.5862 61.0134 72.3796 61.1128 70.2402 61.2203L70.1515 61.2257C64.9562 61.473 59.5835 61.7229 54.5092 62.8168 48.9779 64.0102 44.6964 66.1092 40.8315 69.2324L40.8315 62.239 40.8315 62.118 40.7105 62.118 37.5955 62.118 37.4745 62.118 37.4745 62.239 37.4745 69.2162C32.8248 65.6255 27.4602 63.2737 20.5421 62.0401 14.3469 60.9408 8.0174 60.8387 1.53736 60.8387L1.53736 2.12865 22.9395 2.12865C26.0465 2.23079 27.5462 3.01559 30.4516 5.31895L30.4516 14.6103 30.4516 14.6856 30.5215 14.7205C33.9268 16.1799 36.679 17.3437 39.1785 18.3865L39.2296 18.4053 39.278 18.3865C42.0409 17.1851 44.8442 15.9542 47.6555 14.7205L47.7281 14.6856 47.7281 14.6103 47.7281 5.3727C50.5018 3.22792 52.3563 2.31679 54.3425 2.12597L76.7552 2.12865 76.7552 60.8441Z" fill="#58595B" transform="matrix(1.00436 0 0 1 0 0.582082)"/><path d="M30.4408 60.0888 47.6878 60.0888 47.6878 21.3511 30.4408 21.3511 30.4408 60.0888ZM46.4783 48.6527C45.8064 48.0775 44.8738 47.2873 43.8981 46.4595L43.8981 36.9827 46.4783 38.9635 46.4783 48.6527ZM31.6476 22.5632 46.4783 22.5632 46.4783 37.4315 39.0657 31.7524 31.6476 37.3805 31.6476 22.5632ZM42.6887 36.0554 42.6887 45.4274C41.4443 44.3685 40.2751 43.374 39.6274 42.8204L39.6274 33.7037 42.6887 36.0554ZM38.4152 33.7655 38.4152 42.9628 35.5905 45.3495 35.5905 35.9076 38.4152 33.7655ZM31.6476 38.8963 34.381 36.8241 34.381 46.3708 31.6476 48.6795 31.6476 38.8963ZM31.6476 50.7276 38.9151 44.6077 39.0872 44.4625 39.1033 44.476 46.4783 50.7276 46.4783 58.4843 31.5912 58.4843 31.6476 50.7276Z" fill="#58595B" transform="matrix(1.00436 0 0 1 0 0.582082)"/><path d="M50.0315 15.2312 61.1182 15.2312C59.683 18.4887 57.5919 23.0954 55.7213 27.2237L55.3934 27.9493C53.426 32.298 51.386 36.7999 50.0852 39.7725L50.0315 39.8854 50.0288 55.0521 74.1078 55.0521 74.1078 50.7168 74.0729 50.3325 73.7504 50.1631C69.6919 48.0318 65.3164 45.707 60.7258 43.2531 63.6957 40.3047 66.2248 36.808 68.1815 32.9834L68.1976 32.9834 68.1976 32.9485C68.7674 31.8277 69.2942 30.6881 69.7645 29.5216 72.1646 23.5281 73.0623 17.0937 72.3635 10.9201L72.299 10.3288 50.0315 10.3288 50.0315 15.2312ZM68.2003 11.5463 71.2105 11.5463C71.7883 17.3679 70.9014 23.4179 68.6411 29.0728 68.504 29.4141 68.3481 29.7501 68.2003 30.0914L68.2003 11.5463ZM54.622 32.5883C55.2375 31.2283 55.8691 29.8307 56.498 28.4412L56.8233 27.7182C57.1888 26.9173 57.5624 26.0948 57.9386 25.2643L57.9386 44.1857C57.2318 44.8119 56.2992 45.629 55.2402 46.5106 55.0359 46.6799 54.829 46.8519 54.6247 47.0159L54.6247 32.5883ZM51.2463 40.138C51.843 38.7781 52.5901 37.1036 53.4099 35.2787L53.4099 47.9888C52.5659 48.6554 51.7973 49.244 51.2436 49.6525L51.2463 40.138ZM72.9011 51.0823 72.9011 53.8372 51.2409 53.8372 51.2436 51.1603C51.6951 50.8297 53.047 49.8245 54.5683 48.6204L54.622 48.6204 54.622 48.5747C55.0789 48.2065 55.5466 47.8329 56.0116 47.4432 57.772 45.9784 59.1992 44.691 59.8066 44.1293 64.416 46.5993 68.8184 48.9349 72.9011 51.0823ZM62.4674 39.5252C61.4757 40.7347 60.4221 41.8877 59.3013 42.9521 59.2986 42.9548 59.2422 43.0058 59.1508 43.0891L59.1508 22.5928C60.3952 19.8352 61.5805 17.1932 62.4674 15.1694L62.4674 39.5252ZM63.6769 12.3903 64.0478 11.5463 66.9935 11.5463 66.9935 32.6555C66.0232 34.5181 64.9159 36.3 63.6769 37.9744L63.6769 12.3903ZM51.2409 11.5463 62.7281 11.5463 61.6477 14.0244 51.2409 14.0244 51.2409 11.5463Z" fill="#58595B" transform="matrix(1.00436 0 0 1 0 0.582082)"/><path d="M22.5981 15.8923C24.3317 15.129 27.0758 15.1935 27.1 15.1962L27.729 15.2124 27.6806 10.3288 5.42108 10.3288 5.35389 10.9201C4.65509 17.0937 5.55278 23.5254 7.95289 29.5216 10.181 35.0852 12.5273 38.7324 16.2149 42.3366L16.2149 42.342C16.2176 42.3446 16.2579 42.385 16.317 42.4387 15.2097 44.4276 13.5514 46.9863 11.3905 48.1366 9.17848 49.3111 6.46391 50.225 4.12292 50.5932L3.60958 50.6711 3.60958 55.0521 27.6886 55.0521 27.6833 39.8854 27.6322 39.7725C26.3314 36.7999 24.2968 32.298 22.324 27.9493L21.9961 27.2237C21.0554 25.1434 20.0556 22.9475 19.1149 20.8592 19.1713 20.4023 19.4079 18.9859 20.1873 17.9054 20.7409 17.1367 21.3054 16.4594 22.5981 15.8923ZM9.48757 30.078C9.35049 29.7474 9.21073 29.4115 9.07635 29.0701 6.81331 23.4179 5.92906 17.3679 6.50422 11.5463L9.48757 11.5463 9.48757 30.078ZM14.0136 12.3365 14.0136 38.0685C12.7692 36.4559 11.6942 34.7223 10.7024 32.7227L10.7024 11.5463 13.6696 11.5463 14.0136 12.3365 14.0136 12.3365ZM15.2285 39.5414 15.2285 15.1075C16.1127 17.126 17.2953 19.768 18.5424 22.5363L18.5424 42.9279C18.2683 42.6618 17.4861 41.8824 17.4861 41.8824 16.6691 41.1056 15.9246 40.3316 15.2285 39.5414ZM24.2806 35.2196C25.1138 37.0687 25.8691 38.7593 26.4711 40.138L26.4711 49.6632C25.9121 49.2359 25.1326 48.6473 24.2806 47.9754L24.2806 35.2196ZM19.7546 25.2106C20.1362 26.0545 20.5206 26.9011 20.8941 27.7209L21.222 28.4439C21.8375 29.8146 22.4638 31.1907 23.0685 32.5319L23.0685 47.0051C22.8857 46.8546 22.7003 46.7014 22.5148 46.5482 21.6386 45.8198 20.6469 44.9195 19.7519 44.0782L19.7519 25.2106ZM21.7408 47.4755C22.1842 47.8464 22.6331 48.2065 23.0685 48.5586L23.0685 48.6177 23.1437 48.6177C24.6408 49.8057 25.9846 50.8028 26.4738 51.1683L26.4738 53.8345 4.81635 53.8345 4.81635 51.6951C7.16271 51.2651 9.78859 50.3432 11.9522 49.1983 14.2824 47.9619 16.0214 45.3925 17.2066 43.3122 18.3301 44.4088 20.2034 46.1961 21.7408 47.4755ZM18.2951 19.0369C17.5157 17.3007 16.8008 15.6988 16.231 14.3845L14.9947 11.5463 26.4819 11.5463 26.5061 13.9895C25.517 14.011 23.5684 14.1453 22.1117 14.7796 20.5421 15.4704 19.8164 16.3519 19.2063 17.1986 18.7816 17.7872 18.4913 18.4403 18.2951 19.0369Z" fill="#58595B" transform="matrix(1.00436 0 0 1 0 0.582082)"/><path d="M95.9857 6.80256C96.026 6.91275 96.1684 7.38579 96.413 8.22435L98.7083 16.0482C98.9394 16.8626 99.4743 17.5265 100.316 18.0398 100.856 18.365 101.595 18.6553 102.53 18.9133L104.624 10.7857C104.909 11.6108 105.328 12.9735 105.884 14.8791 106.344 16.446 106.892 17.4324 107.529 17.8382 107.855 18.0559 108.188 18.2414 108.526 18.3973 108.865 18.5532 109.338 18.7252 109.948 18.9133L114.114 5.25713 110.701 5.30014C110.929 5.57428 111.099 5.82692 111.209 6.06613 111.319 6.30533 111.373 6.57948 111.373 6.89663 111.373 7.07401 111.365 7.20571 111.351 7.29441 111.338 7.3831 111.308 7.54436 111.265 7.7755L109.271 14.5216C107.637 8.76726 106.82 5.86186 106.82 5.80811L106.941 5.25982 102.654 5.30014C102.898 5.47752 103.111 5.79736 103.294 6.25696 103.476 6.71655 103.568 7.2084 103.568 7.72444 103.554 7.80507 103.398 8.4528 103.1 9.65958 102.936 10.3396 102.667 11.4093 102.288 12.8767 102.138 13.4465 101.998 14.011 101.861 14.5673L101.78 14.5673 99.7484 6.89125 99.3211 5.26251 94.9106 5.26251 94.9106 5.34314C95.3702 5.66566 95.7277 6.15482 95.9857 6.80256Z" fill="#58595B" transform="matrix(1.00436 0 0 1 0 0.582082)"/><path d="M115.59 6.76762 118.664 12.5677 118.664 16.6556C118.664 17.0481 118.597 17.4216 118.46 17.7764 118.326 18.1285 118.1 18.3919 117.788 18.5693L117.788 18.6499 123.336 18.6499 123.336 18.5693C122.943 18.2172 122.677 17.7845 122.543 17.2711 122.462 16.9594 122.422 16.532 122.422 15.9891L122.422 12.5757 126.101 5.25982 122.422 5.30282C122.64 5.42377 122.79 5.57159 122.879 5.74092 122.967 5.91024 123.01 6.11451 123.01 6.34565 123.01 6.49885 122.973 6.68967 122.898 6.92082 122.822 7.15196 122.723 7.4261 122.602 7.74056L121.43 10.1192 119.073 5.25982 114.356 5.30014C114.628 5.46677 114.837 5.6361 114.993 5.81886 115.149 6.00162 115.348 6.31877 115.59 6.76762Z" fill="#58595B" transform="matrix(1.00436 0 0 1 0 0.582082)"/><path d="M130.367 7.17077 132.157 7.2299 126.08 18.6499 137.032 18.6499 138.15 15.4408C137.376 15.93 136.696 16.2606 136.108 16.4353 135.519 16.61 134.852 16.7013 134.105 16.7013 133.957 16.7013 133.57 16.6691 132.947 16.61 132.323 16.5508 131.81 16.5186 131.401 16.5186L137.395 5.26251 128.066 5.26251 126.991 8.16791C127.518 7.85076 128.071 7.60349 128.647 7.43417 129.227 7.25678 129.8 7.17077 130.367 7.17077Z" fill="#58595B" transform="matrix(1.00436 0 0 1 0 0.582082)"/><path d="M132.46 4.14174C132.99 4.14174 133.439 3.95091 133.812 3.56388 134.186 3.17417 134.371 2.71995 134.371 2.19047 134.371 1.65025 134.181 1.18796 133.802 0.806309 133.423 0.430031 132.976 0.241893 132.46 0.241893 131.917 0.241893 131.458 0.430031 131.079 0.808996 130.7 1.19065 130.512 1.65025 130.512 2.19316 130.512 2.73607 130.7 3.19567 131.079 3.57464 131.458 3.9536 131.92 4.14174 132.46 4.14174Z" fill="#58595B" transform="matrix(1.00436 0 0 1 0 0.582082)"/><path d="M144.464 16.5078C144.077 16.7309 143.587 16.8438 142.996 16.8438 142.279 16.8438 141.529 16.696 140.738 16.403 139.948 16.11 139.276 15.7203 138.723 15.2365L139.395 18.1688C139.921 18.3838 140.529 18.5612 141.214 18.7037 141.897 18.8461 142.598 18.916 143.316 18.916 144.751 18.916 145.95 18.6311 146.912 18.064 148.079 17.3733 148.734 16.3331 148.882 14.9409L148.882 14.4947C148.882 13.6965 148.665 12.9923 148.234 12.3849 147.721 11.6565 146.81 10.9658 145.501 10.3154 145.055 10.1407 144.614 9.95522 144.184 9.76709 143.238 9.34781 142.768 8.86671 142.768 8.32648 142.967 7.43417 143.561 6.98801 144.547 6.98801 144.966 6.98801 145.418 7.06595 145.896 7.22184 146.377 7.37772 146.88 7.61693 147.409 7.94483L147.409 5.54472C146.705 5.2867 146.111 5.12544 145.622 5.05824 145.136 4.98836 144.614 4.95611 144.06 4.95611 142.612 4.95611 141.421 5.27326 140.486 5.90755 139.551 6.54185 139.037 7.42879 138.943 8.56569 138.943 9.68645 139.239 10.6083 139.835 11.3233 140.362 11.9576 141.228 12.5462 142.429 13.0864 143.386 13.5325 143.988 13.8443 144.23 14.0217 144.824 14.4383 145.122 14.9355 145.122 15.5026 145.066 15.9515 144.848 16.2874 144.464 16.5078Z" fill="#58595B" transform="matrix(1.00436 0 0 1 0 0.582082)"/><path d="M160.197 18.6499 161.315 15.4408C160.541 15.93 159.861 16.2606 159.273 16.4353 158.684 16.61 158.018 16.7013 157.271 16.7013 157.123 16.7013 156.736 16.6691 156.112 16.61 155.489 16.5508 154.975 16.5186 154.567 16.5186L160.56 5.26251 151.237 5.26251 150.162 8.16791C150.688 7.85076 151.242 7.60349 151.817 7.43417 152.392 7.26215 152.965 7.17346 153.535 7.17346L155.322 7.2299 149.245 18.6499 160.197 18.6499Z" fill="#58595B" transform="matrix(1.00436 0 0 1 0 0.582082)"/><path d="M165.562 18.5693C165.304 18.3811 165.113 18.1984 164.995 18.0317 164.874 17.8624 164.812 17.6689 164.812 17.4512 164.826 17.3007 164.863 17.1206 164.925 16.9029 164.987 16.6879 165.043 16.4917 165.097 16.3143L165.686 14.6049 169.728 14.6049 170.357 16.5374C170.438 16.739 170.486 16.8895 170.499 16.9835 170.513 17.0776 170.518 17.2228 170.518 17.4109 170.518 17.8705 170.241 18.2548 169.685 18.5693L169.685 18.6499 175.842 18.6499 175.842 18.5693C175.41 18.1769 175.079 17.8033 174.856 17.4512 174.633 17.0964 174.407 16.5831 174.176 15.9031L170.233 5.25982 165.274 5.30282C165.559 5.49365 165.756 5.68179 165.863 5.86455 165.973 6.05 166.027 6.25696 166.027 6.4881 166.027 6.67892 165.987 6.91544 165.906 7.19765 165.825 7.47717 165.777 7.64381 165.764 7.70025L163.019 15.6048C162.761 16.3761 162.565 16.9029 162.431 17.1905 162.159 17.7576 161.815 18.2199 161.396 18.572L161.396 18.6526 165.562 18.6526 165.562 18.5693ZM167.637 8.63288 169.056 12.6994 166.266 12.6967 167.637 8.63288Z" fill="#58595B" transform="matrix(1.00436 0 0 1 0 0.582082)"/><path d="M186.749 16.5078C186.362 16.7309 185.873 16.8438 185.282 16.8438 184.564 16.8438 183.814 16.696 183.024 16.403 182.234 16.11 181.562 15.7203 181.008 15.2365L181.68 18.1688C182.207 18.3838 182.814 18.5612 183.5 18.7037 184.182 18.8461 184.884 18.916 185.602 18.916 187.037 18.916 188.235 18.6311 189.198 18.064 190.364 17.3733 191.02 16.3331 191.168 14.9409L191.168 14.4947C191.168 13.6965 190.95 12.9923 190.52 12.3849 190.007 11.6565 189.096 10.9658 187.787 10.3154 187.34 10.1407 186.9 9.95522 186.47 9.76709 185.524 9.34781 185.053 8.86671 185.053 8.32648 185.252 7.43417 185.846 6.98801 186.835 6.98801 187.254 6.98801 187.706 7.06595 188.184 7.22184 188.665 7.37772 189.168 7.61693 189.698 7.94483L189.698 5.54472C188.993 5.2867 188.399 5.12544 187.91 5.05824 187.421 4.99105 186.902 4.95611 186.346 4.95611 184.897 4.95611 183.707 5.27326 182.771 5.90755 181.836 6.54185 181.323 7.42879 181.229 8.56569 181.229 9.68645 181.524 10.6083 182.121 11.3233 182.648 11.9576 183.513 12.5462 184.715 13.0864 185.671 13.5325 186.273 13.8443 186.515 14.0217 187.109 14.4383 187.408 14.9355 187.408 15.5026 187.354 15.9515 187.133 16.2874 186.749 16.5078Z" fill="#58595B" transform="matrix(1.00436 0 0 1 0 0.582082)"/><path d="M202.486 18.6499 203.604 15.4408C202.83 15.93 202.15 16.2606 201.561 16.4353 200.972 16.61 200.306 16.7013 199.559 16.7013 199.411 16.7013 199.024 16.6691 198.4 16.61 197.777 16.5508 197.263 16.5186 196.855 16.5186L202.848 5.26251 193.519 5.26251 192.444 8.16791C192.971 7.85076 193.525 7.60349 194.1 7.43417 194.675 7.26215 195.248 7.17346 195.817 7.17346L197.607 7.23259 191.531 18.6526 202.486 18.6526Z" fill="#58595B" transform="matrix(1.00436 0 0 1 0 0.582082)"/><path d="M209.882 18.5693C209.57 18.4053 209.347 18.1715 209.21 17.857 209.073 17.5426 209.006 17.1717 209.006 16.739L209.006 12.6994 211.385 16.7847C211.858 17.6125 212.374 18.1285 212.927 18.3381 213.484 18.5478 214.575 18.6526 216.198 18.6526L217.459 18.6526 217.459 18.572C217.107 18.3005 216.781 17.9511 216.483 17.513 216.308 17.2308 216.131 16.9459 215.956 16.661L212.175 10.7078 216.666 5.26251 211.667 5.30551C211.965 5.45602 212.172 5.62535 212.288 5.81617 212.401 6.00431 212.46 6.21664 212.46 6.44778 212.46 6.73536 212.347 7.04983 212.116 7.39116 211.941 7.62499 211.764 7.85076 211.589 8.06846L209.011 11.3206 209.009 7.13852C209.009 6.81331 209.076 6.46928 209.213 6.10913 209.347 5.74629 209.57 5.46677 209.885 5.26251L204.397 5.30282C204.762 5.55009 205.007 5.86724 205.128 6.25964 205.208 6.5311 205.249 6.96651 205.249 7.56049L205.249 8.04965 205.249 16.739C205.249 17.0937 205.189 17.4378 205.066 17.7791 204.945 18.1178 204.722 18.3838 204.394 18.572L204.394 18.6526 209.882 18.6526 209.882 18.5693Z" fill="#58595B" transform="matrix(1.00436 0 0 1 0 0.582082)"/><path d="M224.775 18.916C227.328 18.916 229.287 18.1097 230.653 16.5025 231.747 15.215 232.295 13.6938 232.295 11.9361L232.295 11.8527C232.295 9.83697 231.65 8.20285 230.365 6.94232 229.01 5.61728 227.175 4.95611 224.858 4.95611 222.622 4.95611 220.794 5.59041 219.37 6.86437 217.948 8.13565 217.236 9.72946 217.236 11.6512 217.236 11.678 217.236 11.7237 217.236 11.7936 217.236 11.8635 217.236 11.9226 217.236 11.9764 217.236 13.9115 217.905 15.5322 219.243 16.8465 220.649 18.2253 222.493 18.916 224.775 18.916ZM221.138 11.3878C221.138 10.1434 221.474 9.09785 222.146 8.25391 222.818 7.40998 223.657 6.98801 224.673 6.98801 225.947 6.98801 226.909 7.65187 227.559 8.97422 228.062 9.99016 228.312 11.2131 228.312 12.6456 228.312 13.9034 228.032 14.9033 227.473 15.6451 226.874 16.4433 226.008 16.8411 224.879 16.8411 223.735 16.8411 222.807 16.2794 222.1 15.1586 221.461 14.1427 221.141 12.9735 221.141 11.6485L221.141 11.3878Z" fill="#58595B" transform="matrix(1.00436 0 0 1 0 0.582082)"/><path d="M234.265 17.6743C234.171 18.0425 233.926 18.3677 233.534 18.6499L242.414 18.6499 243.167 15.8252C242.653 16.1369 242.285 16.3304 242.07 16.4138 241.557 16.6046 240.92 16.6987 240.162 16.6987 239.823 16.6987 239.471 16.6745 239.103 16.6288 238.737 16.5804 238.425 16.489 238.167 16.3546L238.167 12.7477 240.218 11.8608 240.24 9.93372 238.167 10.8072 238.167 7.27828C238.167 6.88588 238.202 6.56335 238.27 6.32146 238.391 5.85918 238.635 5.5044 239.001 5.25982L233.534 5.30014C233.792 5.45065 234.002 5.6791 234.163 5.9855 234.327 6.28921 234.407 6.68699 234.407 7.17615L234.407 12.3903 233.534 12.737 233.534 14.6883 234.407 14.3442 234.407 16.11C234.407 16.7873 234.359 17.3088 234.265 17.6743Z" fill="#58595B" transform="matrix(1.00436 0 0 1 0 0.582082)"/><path d="M247.859 18.5693C247.601 18.3811 247.41 18.1984 247.292 18.0317 247.171 17.8624 247.109 17.6689 247.109 17.4512 247.123 17.3007 247.16 17.1206 247.222 16.9029 247.284 16.6879 247.341 16.4917 247.394 16.3143L247.983 14.6049 252.025 14.6049 252.654 16.5374C252.735 16.739 252.783 16.8895 252.797 16.9835 252.81 17.0776 252.815 17.2228 252.815 17.4109 252.815 17.8705 252.539 18.2548 251.982 18.5693L251.982 18.6499 258.14 18.6499 258.14 18.5693C257.707 18.1769 257.376 17.8033 257.153 17.4512 256.93 17.0964 256.704 16.5831 256.473 15.9031L252.53 5.25982 247.572 5.30282C247.857 5.49365 248.053 5.68179 248.16 5.86455 248.27 6.05 248.324 6.25696 248.324 6.4881 248.324 6.67892 248.284 6.91544 248.203 7.19765 248.123 7.47717 248.074 7.64381 248.061 7.70025L245.317 15.6048C245.059 16.3761 244.863 16.9029 244.728 17.1905 244.457 17.7576 244.113 18.2199 243.693 18.572L243.693 18.6526 247.859 18.6526 247.859 18.5693ZM249.934 8.63288 251.356 12.6994 248.566 12.6967 249.934 8.63288Z" fill="#58595B" transform="matrix(1.00436 0 0 1 0 0.582082)"/><path d="M99.8371 29.2368C99.9258 28.9169 100.16 28.6025 100.539 28.288L95.1122 28.3283C95.4911 28.6266 95.725 28.9384 95.8137 29.2556 95.9024 29.5754 95.9454 30.1559 95.9454 30.9945L95.9454 39.1355C95.9454 39.8666 95.9104 40.3638 95.8432 40.6218 95.733 41.0411 95.4911 41.3932 95.1122 41.6808L100.539 41.6405C100.2 41.3798 99.9769 41.1002 99.8667 40.7965 99.7565 40.4901 99.7028 39.9633 99.7028 39.2189L99.7028 30.8332C99.7054 30.0861 99.7484 29.5539 99.8371 29.2368Z" fill="#58595B" transform="matrix(1.00436 0 0 1 0 0.582082)"/><path d="M104.764 33.3489 109.438 39.6059C110.034 40.3934 110.867 41.0357 111.937 41.5383 112.749 41.9173 113.399 42.1081 113.888 42.1081L113.969 42.1081 113.969 30.6693C113.969 30.2231 114.044 29.7931 114.192 29.3792 114.34 28.9653 114.571 28.6025 114.883 28.2907L110.94 28.2907 110.98 28.331C111.373 28.7261 111.631 29.1803 111.754 29.699 111.822 29.9812 111.857 30.4059 111.857 30.9623L111.857 36.5231 105.64 28.2907 101.393 28.2907 101.393 28.3713C101.88 28.9008 102.2 29.3523 102.347 29.7259 102.495 30.0995 102.571 30.7177 102.571 31.5858L102.571 39.2189C102.571 39.8155 102.493 40.2993 102.337 40.6729 102.181 41.0465 101.952 41.3556 101.657 41.6002L101.657 41.6808 105.6 41.6808 105.6 41.6002C105.301 41.3287 105.075 41.0062 104.92 40.6353 104.764 40.2644 104.686 39.794 104.686 39.2242L104.686 33.3516 104.764 33.3516Z" fill="#58595B" transform="matrix(1.00436 0 0 1 0 0.582082)"/><path d="M123.846 28.288 123.766 28.288C123.615 28.3444 123.481 28.374 123.36 28.3821 123.239 28.3874 123.11 28.3901 122.973 28.3901L115.84 28.4304C116.111 28.6347 116.318 28.8793 116.458 29.1615 116.598 29.4437 116.673 29.8469 116.673 30.3602L116.673 39.7268C116.673 40.1461 116.638 40.4713 116.571 40.6998 116.45 41.1352 116.205 41.4577 115.84 41.6754L115.84 41.756 121.347 41.756 121.347 41.6754C120.941 41.3233 120.669 40.8476 120.535 40.2536 120.468 39.958 120.433 39.5279 120.433 38.9716L120.433 35.6792 121.145 35.6792C121.648 35.6792 122.008 35.7463 122.231 35.8834 122.454 36.0178 122.602 36.2006 122.669 36.4317L122.771 36.4317 122.771 33.5451 122.666 33.5451C122.572 33.6016 122.47 33.6284 122.363 33.6365 122.255 33.6446 122.126 33.6473 121.976 33.6473L120.43 33.6473 120.43 30.3548 121.874 30.3548C122.253 30.3548 122.564 30.3898 122.809 30.457 123.282 30.5833 123.629 30.8332 123.844 31.2068L123.844 28.288Z" fill="#58595B" transform="matrix(1.00436 0 0 1 0 0.582082)"/><path d="M132.339 27.9843C130.103 27.9843 128.276 28.6186 126.851 29.8925 125.429 31.1638 124.717 32.7576 124.717 34.6793 124.717 34.7062 124.717 34.7519 124.717 34.8218 124.717 34.8917 124.717 34.9508 124.717 35.0045 124.717 36.9397 125.386 38.5604 126.725 39.8747 128.131 41.2561 129.974 41.9469 132.259 41.9469 134.812 41.9469 136.771 41.1406 138.137 39.5333 139.231 38.2459 139.779 36.7247 139.779 34.9669L139.779 34.8863C139.779 32.8705 139.134 31.2364 137.849 29.9759 136.492 28.6455 134.656 27.9843 132.339 27.9843ZM134.955 38.6759C134.355 39.4742 133.49 39.872 132.361 39.872 131.216 39.872 130.289 39.3102 129.582 38.1895 128.942 37.1735 128.622 36.0044 128.622 34.6793L128.622 34.4159C128.622 33.1715 128.958 32.126 129.63 31.2821 130.302 30.4382 131.143 30.0135 132.159 30.0135 133.433 30.0135 134.396 30.6774 135.046 31.9997 135.549 33.0157 135.799 34.2386 135.799 35.6711 135.793 36.9316 135.514 37.9314 134.955 38.6759Z" fill="#58595B" transform="matrix(1.00436 0 0 1 0 0.582082)"/><path d="M147.619 40.4821C147.877 40.9847 148.157 41.3233 148.46 41.498 148.767 41.6727 149.175 41.7641 149.691 41.7641L150.809 41.7641 153.105 41.6002C152.752 41.3153 152.4 40.939 152.048 40.474 151.914 40.2993 151.696 39.9822 151.398 39.5333L148.775 35.0986C149.71 34.6363 150.374 34.0504 150.766 33.3462 151.024 32.884 151.153 32.3948 151.153 31.8788 151.153 30.7365 150.774 29.8388 150.016 29.1884 149.312 28.589 148.385 28.2907 147.232 28.2907L140.607 28.331C140.972 28.5783 141.203 28.8551 141.298 29.1669 141.392 29.4786 141.44 29.9275 141.44 30.5107L141.44 39.3855 141.44 39.7322C141.44 40.1515 141.384 40.5224 141.276 40.8395 141.166 41.1594 140.943 41.4147 140.604 41.6028L140.604 41.6835 146.071 41.6835 146.071 41.6028C145.786 41.4389 145.568 41.2104 145.42 40.9121 145.273 40.6138 145.197 40.2052 145.197 39.6919L145.197 35.9345 147.619 40.4821ZM145.2 30.2178 145.364 30.2178C146.041 30.2178 146.563 30.4355 146.928 30.8709 147.24 31.2525 147.396 31.7551 147.396 32.384 147.396 33.0076 147.194 33.5559 146.786 34.0155 146.377 34.4751 145.85 34.7546 145.2 34.854L145.2 30.2178Z" fill="#58595B" transform="matrix(1.00436 0 0 1 0 0.582082)"/><path d="M169.647 39.0952 168.631 29.8764C168.631 29.7125 168.618 29.5915 168.591 29.5082 168.618 29.2636 168.68 29.0647 168.774 28.9062 168.868 28.7503 169.059 28.5729 169.344 28.3686L169.344 28.288 164.514 28.288 162.116 36.1549 159.066 28.288 154.408 28.331C154.706 28.6051 154.911 28.8658 155.018 29.1212 155.128 29.3738 155.182 29.656 155.182 29.9705L155.182 30.4435 154.188 39.1382C154.121 39.7752 154.032 40.2429 153.922 40.5385 153.774 40.9578 153.529 41.3126 153.191 41.5975L153.191 41.6781 157.152 41.6781 157.152 41.5975C156.867 41.447 156.647 41.2481 156.499 40.9981 156.349 40.7455 156.276 40.4176 156.276 40.0117L156.953 33.021 157.034 33.021 159.27 39.1087C159.499 39.7725 159.775 40.2697 160.103 40.595 160.576 41.0707 161.396 41.5195 162.563 41.9388L165.186 33.0237 165.266 33.0237 165.938 39.5683 165.979 40.3396C165.979 40.5412 165.936 40.7428 165.847 40.939 165.758 41.1352 165.592 41.3556 165.347 41.6002L165.347 41.6808 170.693 41.6808 170.693 41.6002C170.381 41.3018 170.147 40.9524 169.991 40.552 169.827 40.1488 169.715 39.665 169.647 39.0952Z" fill="#58595B" transform="matrix(1.00436 0 0 1 0 0.582082)"/><path d="M175.762 28.8927C175.872 29.0782 175.926 29.2851 175.926 29.5163 175.926 29.7071 175.885 29.9436 175.805 30.2258 175.724 30.5053 175.676 30.672 175.662 30.7284L172.918 38.6329C172.66 39.4043 172.464 39.9311 172.33 40.2187 172.058 40.7858 171.714 41.2481 171.295 41.6002L171.295 41.6808 175.461 41.6808 175.461 41.6002C175.203 41.412 175.012 41.2292 174.894 41.0626 174.773 40.8933 174.711 40.6998 174.711 40.4821 174.724 40.3316 174.762 40.1515 174.824 39.9338 174.886 39.7188 174.942 39.5226 174.996 39.3452L175.584 37.6358 179.627 37.6358 180.256 39.5683C180.336 39.7698 180.385 39.9203 180.398 40.0144 180.412 40.1085 180.417 40.2536 180.417 40.4418 180.417 40.9014 180.14 41.2857 179.584 41.6002L179.584 41.6808 185.741 41.6808 185.741 41.6002C185.309 41.2077 184.978 40.8342 184.755 40.4821 184.532 40.1273 184.306 39.6139 184.075 38.934L180.132 28.2907 175.173 28.3337C175.458 28.5218 175.654 28.71 175.762 28.8927ZM177.53 31.6611 178.952 35.7275 176.162 35.7248 177.53 31.6611Z" fill="#58595B" transform="matrix(1.00436 0 0 1 0 0.582082)"/><path d="M203.886 39.02 203.886 35.6039 207.565 28.288 203.886 28.331C204.104 28.4519 204.254 28.5998 204.343 28.7691 204.431 28.9384 204.475 29.1427 204.475 29.3738 204.475 29.527 204.437 29.7178 204.362 29.949 204.286 30.1801 204.187 30.4543 204.066 30.7687L202.891 33.15 200.534 28.2907 195.831 28.331 195.839 28.2907 186.408 28.2907 186.021 28.2316 185.209 31.3385C185.685 31.0563 186.083 30.8494 186.408 30.723 186.841 30.5537 187.268 30.465 187.687 30.465 187.727 30.465 187.856 30.4731 188.074 30.4865 188.292 30.5 188.485 30.5215 188.663 30.5457L188.663 39.0872 188.663 39.5387C188.663 40.0305 188.606 40.4471 188.499 40.7938 188.389 41.1432 188.166 41.4093 187.827 41.6028L187.827 41.6835 193.334 41.6835 193.334 41.6028C193.009 41.3314 192.775 41.0115 192.633 40.646 192.49 40.2805 192.418 39.7645 192.418 39.1006L192.418 30.586C192.702 30.5053 192.993 30.4623 193.291 30.4623 193.683 30.4623 194.049 30.5295 194.388 30.6666 194.726 30.801 194.971 31.0268 195.119 31.3358L195.82 28.3364C196.084 28.5003 196.293 28.667 196.446 28.847 196.602 29.0298 196.801 29.3469 197.043 29.7958L200.118 35.5958 200.118 39.6838C200.118 40.0762 200.051 40.4498 199.913 40.8046 199.779 41.1567 199.553 41.4201 199.242 41.5975L199.242 41.6781 204.789 41.6781 204.789 41.5975C204.397 41.2454 204.13 40.8127 203.996 40.2993 203.926 39.9875 203.886 39.5602 203.886 39.02Z" fill="#58595B" transform="matrix(1.00436 0 0 1 0 0.582082)"/><path d="M215.002 39.8128C215.475 40.6406 215.991 41.1567 216.545 41.3663 217.101 41.576 218.192 41.6808 219.816 41.6808L221.076 41.6808 221.076 41.6002C220.724 41.3287 220.399 40.9793 220.101 40.5412 219.926 40.259 219.749 39.9741 219.574 39.6892L215.792 33.736 220.284 28.2907 215.284 28.3337C215.583 28.4842 215.79 28.6535 215.905 28.8443 216.018 29.0325 216.077 29.2448 216.077 29.476 216.077 29.7635 215.964 30.078 215.733 30.4193 215.559 30.6532 215.381 30.8789 215.206 31.0966L212.629 34.3487 212.626 30.1667C212.626 29.8415 212.693 29.4975 212.831 29.1373 212.965 28.7745 213.188 28.4949 213.502 28.2907L208.014 28.331C208.38 28.5783 208.624 28.8954 208.745 29.2878 208.826 29.5593 208.866 29.9947 208.866 30.5887L208.866 31.0778 208.866 39.7671C208.866 40.1219 208.807 40.4659 208.683 40.8073 208.562 41.1459 208.339 41.412 208.012 41.6002L208.012 41.6808 213.5 41.6808 213.5 41.6002C213.188 41.4362 212.965 41.2024 212.828 40.8879 212.691 40.5735 212.624 40.2025 212.624 39.7698L212.624 35.7275 215.002 39.8128Z" fill="#58595B" transform="matrix(1.00436 0 0 1 0 0.582082)"/><path d="M226.248 29.2368C226.336 28.9169 226.57 28.6025 226.949 28.288L221.523 28.3283C221.902 28.6266 222.135 28.9384 222.224 29.2556 222.313 29.5754 222.356 30.1559 222.356 30.9945L222.356 39.1355C222.356 39.8666 222.321 40.3638 222.254 40.6218 222.143 41.0411 221.902 41.3932 221.523 41.6808L226.949 41.6405C226.61 41.3798 226.387 41.1002 226.277 40.7965 226.167 40.4901 226.113 39.9633 226.113 39.2189L226.113 30.8332C226.116 30.0861 226.159 29.5539 226.248 29.2368Z" fill="#58595B" transform="matrix(1.00436 0 0 1 0 0.582082)"/><path d="M254.89 41.6808 256.008 38.4717C255.234 38.9608 254.554 39.2914 253.966 39.4661 253.377 39.6408 252.711 39.7322 251.963 39.7322 251.816 39.7322 251.429 39.7 250.805 39.6408 250.181 39.5817 249.668 39.5494 249.26 39.5494L255.253 28.2934 245.924 28.2934 244.849 31.1988C245.376 30.8816 245.93 30.6344 246.505 30.465 247.08 30.293 247.652 30.2043 248.222 30.2043L250.012 30.2635 243.935 41.6835 254.89 41.6835Z" fill="#58595B" transform="matrix(1.00436 0 0 1 0 0.582082)"/><path d="M260.723 29.5163C260.723 29.7071 260.682 29.9436 260.602 30.2258 260.521 30.5053 260.473 30.672 260.459 30.7284L257.715 38.6329C257.457 39.4043 257.261 39.9311 257.126 40.2187 256.855 40.7858 256.511 41.2481 256.092 41.6002L256.092 41.6808 260.258 41.6808 260.258 41.6002C260 41.412 259.809 41.2292 259.691 41.0626 259.57 40.8933 259.508 40.6998 259.508 40.4821 259.521 40.3316 259.559 40.1515 259.621 39.9338 259.682 39.7188 259.739 39.5226 259.793 39.3452L260.381 37.6358 264.424 37.6358 265.052 39.5683C265.133 39.7698 265.181 39.9203 265.195 40.0144 265.208 40.1085 265.214 40.2536 265.214 40.4418 265.214 40.9014 264.937 41.2857 264.381 41.6002L264.381 41.6808 270.538 41.6808 270.538 41.6002C270.105 41.2077 269.775 40.8342 269.552 40.4821 269.329 40.1273 269.103 39.6139 268.872 38.934L264.929 28.2907 259.97 28.3337C260.255 28.5245 260.451 28.7127 260.559 28.8954 260.669 29.0782 260.723 29.2851 260.723 29.5163ZM262.33 31.6611 263.752 35.7275 260.962 35.7248 262.33 31.6611Z" fill="#58595B" transform="matrix(1.00436 0 0 1 0 0.582082)"/><path d="M277.021 41.6002C276.736 41.4362 276.518 41.2077 276.37 40.9094 276.223 40.6111 276.147 40.2025 276.147 39.6892L276.147 35.9318 278.566 40.4821C278.824 40.9847 279.104 41.3233 279.407 41.498 279.714 41.6727 280.122 41.7641 280.638 41.7641L281.757 41.7641 284.011 41.6028 283.968 41.6808 294.921 41.6808 296.039 38.4717C295.265 38.9608 294.585 39.2914 293.996 39.4661 293.408 39.6408 292.741 39.7322 291.994 39.7322 291.846 39.7322 291.459 39.7 290.836 39.6408 290.212 39.5817 289.699 39.5494 289.29 39.5494L295.284 28.2934 285.955 28.2934 284.88 31.1988C285.406 30.8816 285.96 30.6344 286.535 30.465 287.11 30.293 287.683 30.2043 288.253 30.2043L290.043 30.2635 284.025 41.576C283.681 41.2938 283.34 40.9309 282.993 40.4767 282.858 40.302 282.641 39.9848 282.342 39.536L279.719 35.1013C280.655 34.639 281.318 34.0531 281.711 33.3489 281.969 32.8866 282.098 32.3975 282.098 31.8814 282.098 30.7392 281.719 29.8415 280.961 29.1911 280.257 28.5917 279.329 28.2934 278.176 28.2934L271.551 28.3337C271.917 28.581 272.148 28.8578 272.242 29.1696 272.336 29.4813 272.384 29.9302 272.384 30.5134L272.384 39.3882 272.384 39.7349C272.384 40.1542 272.328 40.5251 272.221 40.8422 272.11 41.1621 271.887 41.4174 271.549 41.6055L271.549 41.6862 277.015 41.6862 277.015 41.6002ZM276.147 30.2178 276.311 30.2178C276.989 30.2178 277.51 30.4355 277.875 30.8709 278.187 31.2525 278.343 31.7551 278.343 32.384 278.343 33.0076 278.142 33.5559 277.733 34.0155 277.324 34.4751 276.798 34.7546 276.147 34.854L276.147 30.2178Z" fill="#58595B" transform="matrix(1.00436 0 0 1 0 0.582082)"/><path d="M317.315 28.288 311.179 28.3283C311.544 28.5057 311.794 28.8255 311.931 29.2851 312.012 29.5566 312.052 29.8979 312.052 30.3038L312.052 30.4677 312.052 39.0146C312.052 39.8021 312.004 40.3692 311.91 40.7159 311.816 41.0626 311.571 41.3556 311.179 41.6002L311.179 41.6808 317.274 41.6808C319.672 41.6808 321.494 40.9497 322.741 39.4849 323.784 38.262 324.305 36.7032 324.305 34.803 324.305 32.849 323.668 31.274 322.397 30.0807 321.12 28.8874 319.427 28.288 317.315 28.288ZM319.519 38.426C318.943 39.2672 318.118 39.6892 317.051 39.6892 316.847 39.6623 316.621 39.6328 316.371 39.5978 316.121 39.5629 315.933 39.536 315.812 39.5064L315.812 30.586C316.232 30.5053 316.495 30.457 316.605 30.4435 316.715 30.4301 316.863 30.422 317.054 30.422 318.03 30.422 318.801 30.7472 319.371 31.3977 320.048 32.1717 320.387 33.3597 320.387 34.9615 320.381 36.4317 320.094 37.5847 319.519 38.426Z" fill="#58595B" transform="matrix(1.00436 0 0 1 0 0.582082)"/><path d="M332.858 39.7295C332.71 39.7295 332.323 39.6973 331.699 39.6381 331.076 39.579 330.562 39.5467 330.154 39.5467L336.147 28.2907 326.824 28.2907 325.749 31.1961C326.275 30.8789 326.829 30.6317 327.404 30.4623 327.979 30.2903 328.552 30.2016 329.122 30.2016L330.912 30.2608 324.835 41.6808 335.787 41.6808 336.905 38.4717C336.131 38.9608 335.451 39.2914 334.863 39.4661 334.274 39.6408 333.605 39.7295 332.858 39.7295Z" fill="#58595B" transform="matrix(1.00436 0 0 1 0 0.582082)"/><path d="M350.172 38.9313 346.229 28.288 341.27 28.331C341.555 28.5218 341.751 28.71 341.859 28.8927 341.969 29.0782 342.023 29.2851 342.023 29.5163 342.023 29.7071 341.982 29.9436 341.902 30.2258 341.821 30.5053 341.773 30.672 341.759 30.7284L339.015 38.6329C338.757 39.4043 338.561 39.9311 338.427 40.2187 338.155 40.7858 337.811 41.2481 337.392 41.6002L337.392 41.6808 341.558 41.6808 341.558 41.6002C341.3 41.412 341.109 41.2292 340.991 41.0626 340.87 40.8933 340.808 40.6998 340.808 40.4821 340.821 40.3316 340.859 40.1515 340.921 39.9338 340.983 39.7188 341.039 39.5226 341.093 39.3452L341.681 37.6358 345.724 37.6358 346.353 39.5683C346.433 39.7698 346.482 39.9203 346.495 40.0144 346.508 40.1085 346.514 40.2536 346.514 40.4418 346.514 40.9014 346.237 41.2857 345.681 41.6002L345.681 41.6808 351.838 41.6808 351.838 41.6002C351.405 41.2077 351.075 40.8342 350.852 40.4821 350.629 40.1273 350.403 39.6113 350.172 38.9313ZM342.262 35.7248 343.63 31.6611 345.052 35.7275 342.262 35.7248Z" fill="#58595B" transform="matrix(1.00436 0 0 1 0 0.582082)"/><path d="M361.998 28.3283C362.39 28.7234 362.648 29.1776 362.772 29.6963 362.839 29.9786 362.874 30.4032 362.874 30.9596L362.874 36.5204 356.657 28.288 352.411 28.288 352.411 28.3686C352.897 28.8981 353.217 29.3496 353.365 29.7232 353.513 30.0968 353.588 30.715 353.588 31.5831L353.588 39.2162C353.588 39.8128 353.51 40.2966 353.354 40.6702 353.198 41.0438 352.97 41.3529 352.674 41.5975L352.674 41.6781 356.617 41.6781 356.617 41.5975C356.319 41.326 356.093 41.0035 355.937 40.6326 355.781 40.2617 355.703 39.7913 355.703 39.2215L355.703 33.3489 355.784 33.3489 360.458 39.6059C361.054 40.3934 361.887 41.0357 362.957 41.5383 363.769 41.9173 364.419 42.1081 364.908 42.1081L364.989 42.1081 364.989 30.6693C364.989 30.2231 365.064 29.7931 365.212 29.3792 365.36 28.9653 365.591 28.6025 365.903 28.2907L361.96 28.2907 361.998 28.3283Z" fill="#58595B" transform="matrix(1.00436 0 0 1 0 0.582082)"/><path d="M371.579 29.2368C371.668 28.9169 371.902 28.6025 372.281 28.288L366.854 28.3283C367.233 28.6266 367.467 28.9384 367.556 29.2556 367.644 29.5754 367.688 30.1559 367.688 30.9945L367.688 39.1355C367.688 39.8666 367.653 40.3638 367.585 40.6218 367.475 41.0411 367.233 41.3932 366.854 41.6808L372.281 41.6405C371.942 41.3798 371.719 41.1002 371.609 40.7965 371.499 40.4901 371.445 39.9633 371.445 39.2189L371.445 30.8332C371.448 30.0861 371.491 29.5539 371.579 29.2368Z" fill="#58595B" transform="matrix(1.00436 0 0 1 0 0.582082)"/><path d="M386.434 40.4821C386.211 40.1273 385.985 39.6139 385.754 38.934L381.811 28.2907 376.853 28.3337C377.137 28.5245 377.334 28.7127 377.441 28.8954 377.551 29.0809 377.605 29.2878 377.605 29.519 377.605 29.7098 377.565 29.9463 377.484 30.2285 377.404 30.508 377.355 30.6747 377.342 30.7311L374.598 38.6356C374.34 39.407 374.143 39.9338 374.009 40.2214 373.737 40.7885 373.393 41.2507 372.974 41.6028L372.974 41.6835 377.14 41.6835 377.14 41.6028C376.882 41.4147 376.691 41.2319 376.573 41.0653 376.452 40.896 376.39 40.7025 376.39 40.4848 376.404 40.3342 376.441 40.1542 376.503 39.9365 376.565 39.7215 376.621 39.5252 376.675 39.3479L377.264 37.6385 381.306 37.6385 381.935 39.5709C382.016 39.7725 382.064 39.923 382.077 40.0171 382.091 40.1112 382.096 40.2563 382.096 40.4444 382.096 40.904 381.819 41.2884 381.263 41.6028L381.263 41.6835 387.421 41.6835 387.421 41.6028C386.985 41.2051 386.657 40.8315 386.434 40.4821ZM377.844 35.7248 379.212 31.6611 380.634 35.7275 377.844 35.7248Z" fill="#58595B" transform="matrix(1.00436 0 0 1 0 0.582082)"/><path d="M101.616 62.0589C101.59 62.0589 100.953 61.9917 99.7054 61.8546 99.2028 61.8009 98.7164 61.774 98.2433 61.774L103.613 54.0764 103.611 53.9931 96.3781 53.9931 95.4239 56.0653C95.8029 55.7912 96.1872 55.603 96.5716 55.4955 96.9559 55.388 97.4075 55.3316 97.9235 55.3316 98.152 55.3316 98.5551 55.3531 99.133 55.3907 99.7081 55.4337 100.125 55.466 100.383 55.4928L94.7547 63.2764 94.7547 63.357 103.412 63.357 104.49 61.1424C103.947 61.481 103.46 61.7202 103.027 61.8546 102.584 61.989 102.116 62.0589 101.616 62.0589Z" fill="#58595B" transform="matrix(1.00436 0 0 1 0 0.582082)"/><path d="M116.366 58.1564C116.326 58.1295 115.466 57.8177 113.786 57.221 112.945 56.9227 112.499 56.5652 112.445 56.146 112.445 55.7912 112.609 55.5305 112.934 55.3638 113.259 55.1945 113.708 55.1085 114.278 55.1085 115.256 55.1085 116.119 55.3181 116.866 55.7374L116.866 53.9904C116.538 53.8964 116.219 53.8292 115.899 53.7969 115.579 53.7647 115.17 53.7458 114.668 53.7458 113.542 53.7458 112.625 53.9286 111.921 54.2941 111.026 54.7564 110.577 55.4713 110.577 56.4497 110.577 57.084 110.808 57.6161 111.271 58.0354 111.598 58.3311 112.12 58.624 112.84 58.9062 114.499 59.5298 115.388 59.8899 115.512 59.984 115.92 60.2662 116.125 60.6263 116.125 61.0591 116.084 61.4649 115.853 61.7713 115.431 61.9756 115.009 62.1772 114.466 62.2793 113.8 62.2793 113.173 62.2793 112.52 62.1772 111.843 61.9756 111.163 61.7713 110.572 61.4918 110.069 61.1397L110.741 63.1098C111.553 63.435 112.456 63.5989 113.442 63.5989 114.579 63.5989 115.576 63.3544 116.428 62.8679 117.444 62.2847 117.952 61.4676 117.952 60.4086 117.952 59.9087 117.807 59.4626 117.514 59.0782 117.221 58.6939 116.842 58.3875 116.366 58.1564Z" fill="#58595B" transform="matrix(1.00436 0 0 1 0 0.582082)"/><path d="M121.763 62.6072C121.688 62.333 121.65 61.8949 121.65 61.2848L121.65 53.6652 121.57 53.6652C121.341 53.9098 120.852 54.0307 120.108 54.0307 119.917 54.0307 119.737 54.0307 119.568 54.0307 119.398 54.0307 119.218 54.0307 119.03 54.0307L119.03 54.1114C119.369 54.2861 119.592 54.536 119.702 54.8586 119.756 55.0225 119.783 55.3128 119.783 55.7294L119.783 61.6987C119.783 62.0508 119.734 62.3599 119.64 62.6287 119.546 62.9001 119.342 63.1152 119.03 63.2764L119.03 63.357 122.403 63.357 122.443 63.2764C122.064 63.1017 121.836 62.8786 121.763 62.6072Z" fill="#58595B" transform="matrix(1.00436 0 0 1 0 0.582082)"/><path d="M120.613 52.7702C120.979 52.7702 121.285 52.6493 121.527 52.4047 121.769 52.1601 121.892 51.8564 121.892 51.4909 121.892 51.1522 121.769 50.8566 121.516 50.6066 121.266 50.354 120.962 50.2303 120.613 50.2303 120.261 50.2303 119.963 50.3593 119.718 50.6174 119.476 50.8754 119.353 51.1657 119.353 51.4909 119.353 51.8564 119.473 52.1601 119.718 52.4047 119.963 52.6493 120.261 52.7702 120.613 52.7702Z" fill="#58595B" transform="matrix(1.00436 0 0 1 0 0.582082)"/><path d="M132.084 54.9741C131.211 54.1302 130.136 53.7055 128.864 53.7055 127.225 53.7055 125.932 54.2243 124.983 55.2698 124.155 56.1782 123.744 57.2882 123.744 58.5998 123.744 60.1856 124.354 61.4461 125.575 62.3787 126.671 63.22 128.012 63.6393 129.598 63.6393 130.071 63.6393 130.544 63.5963 131.009 63.5076 131.474 63.4189 131.939 63.2872 132.401 63.1125L133.355 61.223C132.882 61.5751 132.348 61.8385 131.751 62.0159 131.154 62.1906 130.579 62.282 130.023 62.282L129.515 62.282C128.294 62.1718 127.359 61.6853 126.711 60.8225 126.195 60.1237 125.937 59.304 125.937 58.3579L133.396 58.3579C133.396 56.9496 132.958 55.8234 132.084 54.9741ZM126.018 57.1619C126.112 56.5115 126.418 55.9981 126.932 55.6272 127.445 55.2563 128.042 55.0682 128.722 55.0682 129.386 55.0682 129.961 55.2483 130.45 55.6057 130.936 55.9659 131.216 56.4846 131.283 57.1619L126.018 57.1619Z" fill="#58595B" transform="matrix(1.00436 0 0 1 0 0.582082)"/><path d="M144.206 62.6582C144.095 62.4217 144.042 62.1395 144.042 61.817 144.042 61.6799 144.042 61.5052 144.042 61.2875L144.001 49.6229C143.91 49.7734 143.784 49.8729 143.622 49.9186 143.461 49.9643 143.281 49.9885 143.085 49.9885L141.461 50.0288C141.84 50.2733 142.077 50.526 142.171 50.7813 142.227 50.9157 142.252 51.1791 142.252 51.5742L142.252 54.9042C141.779 54.5118 141.287 54.2216 140.779 54.0307 140.271 53.8426 139.76 53.7485 139.244 53.7485 137.685 53.7485 136.433 54.3049 135.484 55.4149 134.672 56.3637 134.264 57.4253 134.264 58.6052 134.264 60.3818 134.866 61.7068 136.073 62.5884 136.995 63.2657 138.113 63.6043 139.427 63.6043 139.685 63.6043 139.86 63.6016 139.956 63.5936 140.05 63.5855 140.22 63.5613 140.464 63.5237L141.703 61.6934C141.16 62.0858 140.553 62.2847 139.876 62.2847 138.927 62.2847 138.115 61.9594 137.438 61.309 136.707 60.6048 136.341 59.7018 136.341 58.6052 136.341 57.4952 136.659 56.6163 137.296 55.9659 137.879 55.3692 138.578 55.0709 139.389 55.0709 140.201 55.0709 140.865 55.3101 141.381 55.7831 141.961 56.3126 142.254 57.0652 142.254 58.0408L142.254 63.3624 144.878 63.3624 144.878 63.2818C144.539 63.1017 144.313 62.8921 144.206 62.6582Z" fill="#58595B" transform="matrix(1.00436 0 0 1 0 0.582082)"/><path d="M152.417 62.0589C152.39 62.0589 151.753 61.9917 150.506 61.8546 150.003 61.8009 149.517 61.774 149.043 61.774L154.413 54.0764 154.411 53.9931 147.178 53.9931 146.224 56.0653C146.603 55.7912 146.987 55.603 147.372 55.4955 147.756 55.388 148.208 55.3316 148.724 55.3316 148.952 55.3316 149.355 55.3531 149.933 55.3907 150.508 55.4337 150.925 55.466 151.183 55.4928L145.555 63.2764 145.555 63.357 154.212 63.357 155.29 61.1424C154.747 61.481 154.26 61.7202 153.828 61.8546 153.384 61.989 152.916 62.0589 152.417 62.0589Z" fill="#58595B" transform="matrix(1.00436 0 0 1 0 0.582082)"/><path d="M158.359 62.6072C158.284 62.333 158.246 61.8949 158.246 61.2848L158.246 53.6652 158.165 53.6652C157.937 53.9098 157.448 54.0307 156.703 54.0307 156.513 54.0307 156.333 54.0307 156.163 54.0307 155.994 54.0307 155.814 54.0307 155.626 54.0307L155.626 54.1114C155.964 54.2861 156.187 54.536 156.298 54.8586 156.351 55.0225 156.378 55.3128 156.378 55.7294L156.378 61.6987C156.378 62.0508 156.33 62.3599 156.236 62.6287 156.142 62.9001 155.937 63.1152 155.626 63.2764L155.626 63.357 158.999 63.357 159.039 63.2764C158.66 63.1017 158.434 62.8786 158.359 62.6072Z" fill="#58595B" transform="matrix(1.00436 0 0 1 0 0.582082)"/><path d="M157.211 52.7702C157.577 52.7702 157.883 52.6493 158.125 52.4047 158.367 52.1601 158.491 51.8564 158.491 51.4909 158.491 51.1522 158.367 50.8566 158.114 50.6066 157.864 50.354 157.561 50.2303 157.211 50.2303 156.859 50.2303 156.561 50.3593 156.316 50.6174 156.074 50.8754 155.951 51.1657 155.951 51.4909 155.951 51.8564 156.072 52.1601 156.316 52.4047 156.561 52.6493 156.859 52.7702 157.211 52.7702Z" fill="#58595B" transform="matrix(1.00436 0 0 1 0 0.582082)"/><path d="M166.113 53.7458C165.895 53.7458 165.653 53.7673 165.382 53.805 165.111 53.848 164.861 53.8937 164.629 53.9474L163.573 55.6944C163.764 55.56 164.011 55.4552 164.315 55.38 164.621 55.3074 164.941 55.2698 165.28 55.2698 166.092 55.2698 166.769 55.4982 167.312 55.9605 167.962 56.5169 168.287 57.342 168.287 58.4386 168.287 59.7528 167.93 60.7419 167.212 61.4058 166.602 61.9594 165.782 62.239 164.753 62.239 164.549 62.239 164.334 62.2175 164.103 62.1798 163.871 62.1368 163.533 62.0589 163.087 61.9353L163.046 49.6202C162.885 49.8648 162.552 49.9885 162.052 49.9885L160.506 50.0288C160.818 50.2196 161.02 50.4319 161.117 50.6684 161.213 50.905 161.259 51.249 161.259 51.6951L161.259 61.817 161.259 61.9809C161.259 62.2228 161.219 62.4647 161.138 62.7012 161.057 62.9405 160.902 63.1178 160.67 63.2415 161.227 63.3221 161.789 63.4108 162.356 63.5049 163.06 63.5989 163.745 63.6473 164.409 63.6473 166.223 63.6473 167.669 63.1985 168.747 62.2981 169.822 61.395 170.362 60.2151 170.362 58.753 170.362 57.2882 169.973 56.0895 169.193 55.1542 168.411 54.2135 167.384 53.7458 166.113 53.7458Z" fill="#58595B" transform="matrix(1.00436 0 0 1 0 0.582082)"/><path d="M179.218 65.9372C179.068 65.784 178.995 65.6577 178.995 65.5448 178.995 65.1229 179.044 64.7842 179.138 64.5316 179.232 64.2789 179.463 63.9672 179.828 63.5989L180.742 62.2793C180.076 62.2793 179.619 62.1341 179.369 61.8492 179.119 61.5644 178.995 61.0886 178.995 60.4221L178.995 56.8689C178.995 55.7804 178.603 54.9714 177.823 54.4393 177.151 53.977 176.256 53.7458 175.136 53.7458 174.974 53.7458 174.732 53.7673 174.407 53.805 174.085 53.848 173.875 53.8641 173.781 53.8641L172.448 55.8987C172.905 55.6675 173.311 55.4928 173.663 55.3692 174.203 55.1945 174.708 55.1058 175.179 55.1058 175.636 55.1058 176.049 55.1918 176.412 55.3692 176.883 55.6004 177.119 55.9175 177.119 56.3233 177.119 56.498 177.079 56.6701 176.998 56.8313 176.918 56.9953 176.837 57.1028 176.756 57.1565 176.485 57.3581 176.055 57.5355 175.461 57.6833 173.813 58.1026 172.961 58.3257 172.908 58.3526 172.327 58.6267 171.894 58.9304 171.612 59.2691 171.273 59.6749 171.107 60.1909 171.107 60.8118 171.107 61.5993 171.424 62.2578 172.061 62.7926 172.698 63.3275 173.544 63.5963 174.601 63.5963 174.818 63.5963 174.98 63.5882 175.09 63.5747 175.197 63.5613 175.372 63.5398 175.617 63.5156L176.815 62.0105C176.531 62.0911 176.256 62.1583 175.993 62.204 175.727 62.2524 175.488 62.2739 175.27 62.2739 174.62 62.2739 174.098 62.1261 173.706 61.8358 173.313 61.5455 173.117 61.1343 173.117 60.6075 173.117 59.8066 173.789 59.2529 175.13 58.9412 176.041 58.7235 176.705 58.5004 177.122 58.2692L177.122 61.4407C177.122 62.5104 177.692 63.1877 178.829 63.4726 178.503 63.6608 178.235 63.9376 178.025 64.3031 177.815 64.6686 177.71 65.0852 177.71 65.5556 177.71 66.0152 177.89 66.3834 178.248 66.6575 178.608 66.9344 179.038 67.0714 179.538 67.0714 179.944 67.0714 180.323 66.9774 180.675 66.7919L181 65.8727C180.675 66.0609 180.24 66.1549 179.699 66.1549 179.53 66.1603 179.366 66.0877 179.218 65.9372Z" fill="#58595B" transform="matrix(1.00436 0 0 1 0 0.582082)"/><path d="M198.564 54.0711C198.997 54.2888 199.215 54.5925 199.215 54.9876 199.215 55.1354 199.177 55.3181 199.104 55.5359 199.032 55.7509 198.959 55.9551 198.895 56.146L196.93 60.9811 195.154 56.0223C195.016 55.6837 194.89 55.3477 194.775 55.0171 194.659 54.6839 194.586 54.4366 194.56 54.2753L194.6 53.9931 191.899 53.9931 191.899 54.0737C192.278 54.2619 192.466 54.528 192.466 54.8666 192.466 55.0413 192.434 55.2402 192.366 55.4579 192.299 55.6756 192.24 55.8638 192.186 56.0277L190.235 60.9972 187.813 54.6247C187.746 54.4877 187.701 54.3721 187.682 54.278 187.66 54.1839 187.636 54.0066 187.612 53.7512L187.531 53.7512C187.367 53.856 187.187 53.9205 186.983 53.942 186.779 53.9635 186.596 53.9851 186.435 53.9958 186.217 53.9958 186.007 53.9958 185.806 53.9958 185.604 53.9958 185.386 53.9958 185.155 53.9958L185.155 54.0764C185.462 54.2511 185.704 54.4984 185.878 54.8102 185.892 54.8371 186.018 55.1219 186.26 55.6649L188.579 61.7068C188.77 62.1798 188.972 62.5292 189.179 62.7577 189.496 63.1232 189.999 63.4457 190.687 63.7253L193.45 56.6136 195.441 61.8546C195.645 62.4513 195.936 62.8921 196.315 63.1743 196.626 63.349 196.944 63.5344 197.269 63.7226L201.314 53.9904 198.57 53.9904 198.57 54.0711Z" fill="#58595B" transform="matrix(1.00436 0 0 1 0 0.582082)"/><path d="M225.081 62.0589C225.054 62.0589 224.417 61.9917 223.17 61.8546 222.668 61.8009 222.181 61.774 221.708 61.774L227.078 54.0764 227.075 53.9931 219.843 53.9931 218.889 56.0653C219.268 55.7912 219.652 55.603 220.036 55.4955 220.421 55.388 220.872 55.3316 221.388 55.3316 221.617 55.3316 222.02 55.3531 222.598 55.3907 223.173 55.4337 223.589 55.466 223.847 55.4928L218.555 62.8088C218.072 62.462 217.564 62.118 217.16 61.7498 216.714 61.3467 216.389 61.008 216.185 60.7339L213.075 56.8555C214.091 56.5437 214.876 56.0815 215.432 55.4713 215.921 54.9311 216.204 54.3049 216.284 53.6034 216.284 52.5444 215.951 51.7005 215.29 51.0635 214.545 50.3459 213.459 49.9885 212.038 49.9885L207.283 49.9885 207.283 50.0691C207.684 50.233 207.944 50.5421 208.06 51.0044 208.124 51.2759 208.157 51.8376 208.157 52.6896L208.157 60.492C208.157 61.3467 208.108 61.9863 208.014 62.4137 207.92 62.841 207.676 63.1286 207.283 63.2764L207.283 63.357 211.124 63.3167C210.731 63.099 210.484 62.8141 210.382 62.462 210.28 62.11 210.229 61.4676 210.229 60.5323L210.229 51.4076C210.554 51.3404 210.788 51.2947 210.93 51.2732 211.073 51.2544 211.272 51.2436 211.53 51.2436 212.288 51.2436 212.906 51.3995 213.379 51.7113 213.949 52.0768 214.231 52.6278 214.231 53.3561 214.231 54.2511 213.844 54.9795 213.072 55.5332 212.462 55.9686 211.669 56.2615 210.694 56.4067L212.559 59.2341 214.932 62.1637C215.231 62.5669 215.548 62.8679 215.878 63.0614 216.212 63.2576 216.65 63.3544 217.193 63.3544L218.214 63.3544 219.273 63.3544 226.871 63.3544 227.949 61.1397C227.406 61.4783 226.919 61.7175 226.487 61.8519 226.049 61.989 225.581 62.0589 225.081 62.0589Z" fill="#58595B" transform="matrix(1.00436 0 0 1 0 0.582082)"/><path d="M236.469 54.9741C235.595 54.1302 234.52 53.7055 233.249 53.7055 231.609 53.7055 230.317 54.2243 229.368 55.2698 228.54 56.1782 228.129 57.2882 228.129 58.5998 228.129 60.1856 228.739 61.4461 229.959 62.3787 231.056 63.22 232.397 63.6393 233.983 63.6393 234.456 63.6393 234.929 63.5963 235.394 63.5076 235.859 63.4189 236.324 63.2872 236.786 63.1125L237.74 61.223C237.267 61.5751 236.732 61.8385 236.136 62.0159 235.539 62.1906 234.964 62.282 234.407 62.282L233.899 62.282C232.679 62.1718 231.744 61.6853 231.096 60.8225 230.58 60.1237 230.322 59.304 230.322 58.3579L237.78 58.3579C237.78 56.9496 237.345 55.8234 236.469 54.9741ZM230.405 57.1619C230.499 56.5115 230.806 55.9981 231.319 55.6272 231.833 55.2563 232.429 55.0682 233.109 55.0682 233.773 55.0682 234.348 55.2483 234.837 55.6057 235.324 55.9659 235.603 56.4846 235.671 57.1619L230.405 57.1619Z" fill="#58595B" transform="matrix(1.00436 0 0 1 0 0.582082)"/><path d="M244.731 58.1564C244.69 58.1295 243.83 57.8177 242.151 57.221 241.309 56.9227 240.863 56.5652 240.809 56.146 240.809 55.7912 240.973 55.5305 241.299 55.3638 241.624 55.1945 242.073 55.1085 242.642 55.1085 243.621 55.1085 244.484 55.3181 245.231 55.7374L245.231 53.9904C244.903 53.8964 244.583 53.8292 244.263 53.7969 243.943 53.7647 243.535 53.7458 243.032 53.7458 241.906 53.7458 240.99 53.9286 240.285 54.2941 239.39 54.7564 238.942 55.4713 238.942 56.4497 238.942 57.084 239.173 57.6161 239.635 58.0354 239.963 58.3311 240.484 58.624 241.205 58.9062 242.863 59.5298 243.752 59.8899 243.876 59.984 244.285 60.2662 244.489 60.6263 244.489 61.0591 244.449 61.4649 244.217 61.7713 243.795 61.9756 243.374 62.1772 242.831 62.2793 242.164 62.2793 241.538 62.2793 240.885 62.1772 240.207 61.9756 239.527 61.7713 238.936 61.4918 238.434 61.1397L239.105 63.1098C239.917 63.435 240.82 63.5989 241.807 63.5989 242.943 63.5989 243.941 63.3544 244.793 62.8679 245.809 62.2847 246.317 61.4676 246.317 60.4086 246.317 59.9087 246.171 59.4626 245.878 59.0782 245.585 58.6939 245.204 58.3875 244.731 58.1564Z" fill="#58595B" transform="matrix(1.00436 0 0 1 0 0.582082)"/><path d="M253.549 62.0589C253.522 62.0589 252.885 61.9917 251.638 61.8546 251.136 61.8009 250.649 61.774 250.176 61.774L255.546 54.0764 255.543 53.9931 248.311 53.9931 247.357 56.0653C247.736 55.7912 248.12 55.603 248.504 55.4955 248.889 55.388 249.34 55.3316 249.856 55.3316 250.085 55.3316 250.488 55.3531 251.066 55.3907 251.641 55.4337 252.057 55.466 252.315 55.4928L246.687 63.2764 246.687 63.357 255.344 63.357 256.422 61.1424C255.879 61.481 255.393 61.7202 254.96 61.8546 254.519 61.989 254.049 62.0589 253.549 62.0589Z" fill="#58595B" transform="matrix(1.00436 0 0 1 0 0.582082)"/><path d="M261.921 53.7458C260.174 53.7458 258.812 54.2726 257.836 55.3316 256.981 56.2535 256.554 57.3769 256.554 58.7046 256.554 60.0458 256.995 61.1773 257.876 62.0992 258.836 63.1017 260.118 63.6043 261.717 63.6043 263.139 63.6043 264.375 63.1178 265.426 62.1503 266.477 61.1827 267.001 60.0001 267.001 58.6052 267.001 57.1431 266.48 55.9524 265.437 55.0306 264.475 54.1732 263.303 53.7458 261.921 53.7458ZM264.179 61.258C263.623 61.9675 262.857 62.3223 261.884 62.3223L261.72 62.3223C260.838 62.3223 260.104 61.9433 259.516 61.1854 258.927 60.4275 258.632 59.511 258.632 58.4412 258.632 57.2506 259.011 56.3502 259.768 55.7401 260.325 55.2913 260.959 55.0682 261.677 55.0682 262.652 55.0682 263.445 55.4687 264.055 56.275 264.622 57.0221 264.907 57.9064 264.907 58.9304 264.907 59.8577 264.665 60.6344 264.179 61.258Z" fill="#58595B" transform="matrix(1.00436 0 0 1 0 0.582082)"/><path d="M280.251 54.0711C280.684 54.2888 280.902 54.5925 280.902 54.9876 280.902 55.1354 280.864 55.3181 280.792 55.5359 280.719 55.7509 280.646 55.9551 280.582 56.146L278.617 60.9811 276.841 56.0223C276.704 55.6837 276.577 55.3477 276.462 55.0171 276.346 54.6839 276.274 54.4366 276.247 54.2753L276.287 53.9931 273.586 53.9931 273.586 54.0737C273.965 54.2619 274.153 54.528 274.153 54.8666 274.153 55.0413 274.121 55.2402 274.054 55.4579 273.986 55.6756 273.927 55.8638 273.874 56.0277L271.922 60.9972 269.501 54.6247C269.433 54.4877 269.388 54.3721 269.369 54.278 269.347 54.1839 269.323 54.0066 269.299 53.7512L269.218 53.7512C269.054 53.856 268.874 53.9205 268.67 53.942 268.466 53.9635 268.283 53.9851 268.122 53.9958 267.904 53.9958 267.694 53.9958 267.493 53.9958 267.291 53.9958 267.074 53.9958 266.842 53.9958L266.842 54.0764C267.149 54.2511 267.391 54.4984 267.565 54.8102 267.579 54.8371 267.705 55.1219 267.947 55.6649L270.267 61.7068C270.457 62.1798 270.659 62.5292 270.866 62.7577 271.183 63.1232 271.686 63.4457 272.374 63.7253L275.137 56.6136 277.128 61.8546C277.333 62.4513 277.623 62.8921 278.002 63.1743 278.314 63.349 278.631 63.5344 278.956 63.7226L283.001 53.9904 280.257 53.9904 280.257 54.0711Z" fill="#58595B" transform="matrix(1.00436 0 0 1 0 0.582082)"/><path d="M284.275 50.6174C284.033 50.8754 283.909 51.1657 283.909 51.4909 283.909 51.8564 284.03 52.1601 284.275 52.4047 284.519 52.6493 284.818 52.7702 285.17 52.7702 285.535 52.7702 285.842 52.6493 286.084 52.4047 286.326 52.1601 286.449 51.8564 286.449 51.4909 286.449 51.1522 286.326 50.8566 286.073 50.6066 285.823 50.354 285.519 50.2303 285.17 50.2303 284.815 50.2303 284.517 50.3593 284.275 50.6174Z" fill="#58595B" transform="matrix(1.00436 0 0 1 0 0.582082)"/><path d="M286.318 62.6072C286.242 62.333 286.205 61.8949 286.205 61.2848L286.205 53.6652 286.124 53.6652C285.896 53.9098 285.406 54.0307 284.662 54.0307 284.471 54.0307 284.291 54.0307 284.122 54.0307 283.952 54.0307 283.772 54.0307 283.584 54.0307L283.584 54.1114C283.923 54.2861 284.146 54.536 284.256 54.8586 284.31 55.0225 284.337 55.3128 284.337 55.7294L284.337 61.6987C284.337 62.0508 284.288 62.3599 284.194 62.6287 284.1 62.9001 283.896 63.1152 283.584 63.2764L283.584 63.357 286.957 63.357 286.997 63.2764C286.619 63.1017 286.39 62.8786 286.318 62.6072Z" fill="#58595B" transform="matrix(1.00436 0 0 1 0 0.582082)"/><path d="M296.638 54.9741C295.765 54.1302 294.69 53.7055 293.418 53.7055 291.779 53.7055 290.486 54.2243 289.537 55.2698 288.71 56.1782 288.298 57.2882 288.298 58.5998 288.298 60.1856 288.908 61.4461 290.129 62.3787 291.225 63.22 292.566 63.6393 294.152 63.6393 294.625 63.6393 295.098 63.5963 295.563 63.5076 296.028 63.4189 296.493 63.2872 296.955 63.1125L297.91 61.223C297.437 61.5751 296.902 61.8385 296.305 62.0159 295.708 62.1906 295.133 62.282 294.577 62.282L294.069 62.282C292.849 62.1718 291.913 61.6853 291.266 60.8225 290.75 60.1237 290.492 59.304 290.492 58.3579L297.95 58.3579C297.95 56.9496 297.512 55.8234 296.638 54.9741ZM290.572 57.1619C290.666 56.5115 290.973 55.9981 291.486 55.6272 291.999 55.2563 292.596 55.0682 293.276 55.0682 293.94 55.0682 294.515 55.2483 295.004 55.6057 295.491 55.9659 295.77 56.4846 295.837 57.1619L290.572 57.1619Z" fill="#58595B" transform="matrix(1.00436 0 0 1 0 0.582082)"/><path d="M308.736 42.7155C308.843 42.436 309.069 42.0651 309.322 41.6808L310.566 41.6808 310.566 41.6002C310.133 41.2077 309.803 40.8342 309.58 40.4821 309.356 40.1273 309.131 39.6139 308.9 38.934L304.957 28.2907 299.998 28.3337C300.283 28.5245 300.479 28.7127 300.586 28.8954 300.697 29.0809 300.75 29.2878 300.75 29.519 300.75 29.7098 300.71 29.9463 300.629 30.2285 300.549 30.508 300.5 30.6747 300.487 30.7311L297.743 38.6356C297.485 39.407 297.289 39.9338 297.154 40.2214 296.883 40.7885 296.539 41.2507 296.12 41.6028L296.12 41.6835 300.285 41.6835 300.285 41.6028C300.027 41.4147 299.837 41.2319 299.718 41.0653 299.597 40.896 299.536 40.7025 299.536 40.4848 299.549 40.3342 299.587 40.1542 299.648 39.9365 299.71 39.7215 299.767 39.5252 299.82 39.3479L300.409 37.6385 304.451 37.6385 305.08 39.5709C305.161 39.7725 305.209 39.923 305.223 40.0171 305.236 40.1112 305.242 40.2563 305.242 40.4444 305.242 40.904 304.965 41.2884 304.408 41.6028L304.408 41.6835 307.273 41.6835C306.795 42.2103 306.292 42.9816 306.292 43.9949 306.292 46.1047 308.284 46.4031 309.609 46.4031 310.216 46.4031 310.598 46.2982 310.598 46.2982L311.474 44.4975C311.474 44.4975 311.093 44.6238 310.23 44.6238 309.378 44.6211 308.187 44.1642 308.736 42.7155ZM300.992 35.7248 302.36 31.6611 303.782 35.7275 300.992 35.7248Z" fill="#58595B" transform="matrix(1.00436 0 0 1 0 0.582082)"/><path d="M237.737 31.4756C238.106 31.0859 238.291 30.6317 238.291 30.1022 238.291 29.5593 238.103 29.097 237.729 28.718 237.353 28.3391 236.912 28.1482 236.402 28.1482 235.864 28.1482 235.407 28.3391 235.034 28.718 234.657 29.097 234.472 29.5593 234.472 30.1022 234.472 30.6397 234.66 31.102 235.034 31.4837 235.407 31.8653 235.864 32.0535 236.402 32.0535 236.92 32.0535 237.367 31.8599 237.737 31.4756Z" fill="#58595B" transform="matrix(1.00436 0 0 1 0 0.582082)"/><path d="M234.63 40.9229C234.547 41.2024 234.351 41.4685 234.039 41.7265L234.039 41.8071 238.998 41.8071 238.998 41.7265C238.7 41.4953 238.506 41.2615 238.417 41.0223 238.329 40.7885 238.286 40.4364 238.286 39.9741L238.286 32.9431 238.202 32.9431C237.982 33.0667 237.783 33.1447 237.598 33.1769 237.412 33.2145 237.143 33.2307 236.786 33.2307L236.52 33.2307 234.036 33.2307 234.036 33.3113C234.367 33.5935 234.569 33.8542 234.641 34.0961 234.714 34.3299 234.751 34.6283 234.751 34.9777L234.751 39.8962C234.754 40.302 234.711 40.646 234.63 40.9229Z" fill="#58595B" transform="matrix(1.00436 0 0 1 0 0.582082)"/></g></svg>